<?xml version="1.0" encoding="UTF-8" standalone="no"?>
<!-- Created with Inkscape (http://www.inkscape.org/) -->

<svg
   width="103.59038"
   height="77.002319"
   viewBox="0 0 103.59038 77.002319"
   version="1.1"
   id="svg5"
   inkscape:export-filename="eposit_icon.svg"
   inkscape:export-xdpi="87.112335"
   inkscape:export-ydpi="87.112335"
   xmlns:inkscape="http://www.inkscape.org/namespaces/inkscape"
   xmlns:sodipodi="http://sodipodi.sourceforge.net/DTD/sodipodi-0.dtd"
   xmlns="http://www.w3.org/2000/svg"
   xmlns:svg="http://www.w3.org/2000/svg">
  <sodipodi:namedview
     id="namedview7"
     pagecolor="#ffffff"
     bordercolor="#111111"
     borderopacity="1"
     inkscape:showpageshadow="0"
     inkscape:pageopacity="0"
     inkscape:pagecheckerboard="1"
     inkscape:deskcolor="#d1d1d1"
     inkscape:document-units="px"
     showgrid="false"
     showguides="false" />
  <defs
     id="defs2">
    <clipPath
       clipPathUnits="userSpaceOnUse"
       id="clipPath706">
      <path
         id="path708"
         style="fill:#ff0000;fill-opacity:1;fill-rule:nonzero;stroke:none"
         d="m 21.101562,34.912109 v 57.052735 h 9.6875 c -0.01939,-0.02993 -0.04466,-0.05985 -0.0625,-0.08984 -0.02614,-0.0072 -0.134413,-0.103964 -0.183593,-0.136719 -3.28059,-2.185057 -1.008953,-5.552045 2.226562,-3.300781 0.115779,0.08056 0.263578,0.185701 0.376953,0.269531 l 0.246094,0.128907 c -0.02567,-0.01049 -0.100232,-0.04506 -0.07617,-0.03125 0.09858,0.05657 0.413742,0.172756 0.300782,0.160156 -0.252879,-0.0282 -0.36187,-0.048 -0.523438,-0.07031 0.280249,0.217137 0.771159,0.604304 1.201172,0.917969 0.139021,0.07387 0.309174,0.163625 0.492187,0.259766 -0.05096,-0.09589 -0.263437,-0.336688 -0.771484,-0.841797 0.281158,0.102207 0.924247,0.324239 0.353516,0.103515 0.728629,0.284101 0.742825,0.254773 1.085937,0.542969 0.148561,0.02608 0.296823,0.05168 0.445313,0.07813 0.192087,0.05811 0.708564,0.206322 0.878906,0.294922 0.187436,0.09749 0.362153,0.218035 0.539062,0.333984 0.256659,0.07088 0.501085,0.14534 0.740235,0.232422 0.0071,-0.0027 0.01412,-0.0052 0.02148,-0.0059 0.0649,-0.0055 0.130233,-0.0072 0.195313,-0.0098 0.30197,-0.01195 0.535106,-0.01805 0.841797,-0.02734 0.350897,-0.04594 0.70354,0.01718 1.052734,0.02148 0.0198,2.4e-4 0.03717,-0.01593 0.05664,-0.01953 0.120376,-0.02227 0.240465,-0.03914 0.361329,-0.05859 0.477814,0.03484 0.88615,-0.171862 1.339843,-0.242188 0.189544,-0.109661 0.379419,-0.202332 0.652344,-0.345703 0.587202,-0.308461 1.17578,-0.612427 1.767578,-0.912109 0.793197,-0.398388 1.646513,-0.59506 2.513672,-0.744141 0.426288,-0.07329 0.758146,-0.127814 1.19336,-0.146484 0.217965,-0.0094 0.436131,-1.7e-4 0.654296,0 0.551387,0.02819 1.097324,0.03163 1.638672,0.160156 0.433742,0.102982 0.900457,0.27171 1.326172,0.419922 -0.01609,-0.0143 -0.06497,-0.02937 -0.04687,-0.04102 0.04353,-0.02807 0.100664,-0.02219 0.152344,-0.02539 0.20753,-0.013 0.41524,-0.01614 0.623047,-0.02344 0.254817,-0.009 0.511243,-0.008 0.765625,-0.02539 0.690538,-0.04729 1.378258,-0.126398 2.068359,-0.179688 -0.347432,-0.699771 0.475425,-0.137161 0.900391,-0.03711 -0.0165,6.02e-4 -0.03464,0.0013 -0.0332,-0.01563 0.0085,-0.100801 0.182837,-0.08587 0.273437,-0.13086 0.255099,-0.126666 0.89525,-0.452902 1.111328,-0.5625 0.495076,-0.28624 1.037773,-0.421823 1.587891,-0.535156 -0.02895,-0.134053 0.225886,-0.195418 0.333984,-0.294922 0.802872,-0.644525 1.705951,-1.245681 2.734375,-1.457031 0.315179,-0.06477 0.641183,-0.07398 0.962891,-0.08008 0.07645,-0.0014 0.177013,-0.02482 0.265625,-0.0293 0.08861,-0.0045 0.164628,0.0097 0.189453,0.08203 0.258042,0.75177 0.40725,1.53435 0.550781,2.31836 0.54748,-0.124054 1.091541,-0.257284 1.650391,-0.324219 0.306485,-0.05669 0.611118,-0.127652 0.919922,-0.169922 0.918547,-0.12574 1.854793,-0.106769 2.779297,-0.105469 0.400882,0.0242 1.066868,0.06015 1.455078,0.09766 0.09673,0.0093 0.189929,0.04523 0.287109,0.04492 0.178577,-5.7e-4 0.356754,-0.03898 0.535156,-0.04687 0.694707,-0.03065 0.731887,0.0034 1.476563,0.08008 0.595589,0.119974 0.955206,0.182155 1.552734,0.347657 0.224253,0.06211 0.440122,0.151615 0.664063,0.214843 0.192202,0.05427 0.387919,0.09347 0.576172,0.160157 0.157763,0.05589 0.306331,0.138401 0.458984,0.207031 0.09767,0.06101 0.400664,0.256239 0.496094,0.287109 0.235516,0.07619 0.480331,0.121355 0.722656,0.171875 0.555837,0.11587 1.123185,0.221189 1.693359,0.199219 0.601901,0.0186 1.201991,0.04772 1.804688,0.03516 0.193816,-0.004 0.392483,-0.07232 0.580078,-0.02344 0.06539,0.01704 -0.100171,0.08956 -0.150391,0.134766 0.828571,-0.12044 1.324577,-0.185068 1.621094,-0.220704 -0.198768,0.01269 -0.412864,0.01486 -0.527344,-0.02539 -0.08947,-0.03144 0.188414,0.007 0.283204,0.0039 0.859432,-0.02837 1.715415,-0.120061 2.570312,-0.207031 0.909633,-0.0053 1.820749,-0.100149 2.728516,0.02734 1.364114,0.13131 2.771684,0.157755 4.058593,0.681641 0.158816,0.07708 -0.03432,-0.01268 0.34375,0.117188 0.447574,0.153741 0.984661,0.309446 1.310547,0.6875 0.03702,0.03073 0.129178,0.04713 0.111328,0.0918 -0.0076,0.01909 -0.04573,0.01011 -0.08008,0 0.171754,0.06436 0.514984,0.146479 0.375,0.138671 -0.04332,-0.0024 -0.137068,-0.02833 -0.216797,-0.04687 0.147549,0.04066 -0.01984,-0.01408 0.384766,0.107422 0.03702,0.01112 0.0694,0.03653 0.103516,0.05469 0.08305,0.04889 0.50635,0.302728 0.683593,0.425781 0.07082,0.01549 0.14053,0.03436 0.210938,0.05078 -0.306206,-0.590784 -0.400337,-1.436132 -0.0918,-2.507812 0.06874,-0.238743 0.02592,-0.150727 0.0918,-0.273438 0.0615,-0.243082 0.121187,-0.486178 0.185547,-0.728515 0.0058,-0.02165 -0.01704,0.08759 -0.0098,0.06641 0.03331,-0.09658 0.07143,-0.193269 0.09375,-0.292969 0.03388,-0.151338 0.05189,-0.305733 0.08594,-0.457031 0.0087,-0.03846 0.02897,-0.07252 0.04297,-0.109375 0.104291,-0.728943 0.245116,-1.456793 0.44336,-2.166016 0.03687,-0.164239 0.07446,-0.327947 0.111328,-0.492187 0.02072,-0.06248 0.04546,-0.12392 0.0625,-0.1875 0.04668,-0.17417 0.07977,-0.698883 0.128906,-0.525391 0.09502,0.335461 -0.0948,1.374975 0.01758,1.044922 0.131277,-0.385587 0.2979,-2.054972 0.03516,-1.240234 -0.0064,0.05121 -0.0069,0.07311 -0.01563,0.136718 -8.2e-4,0.006 -0.01421,-0.0056 -0.01367,-0.01172 0.0034,-0.03874 0.01701,-0.0753 0.02539,-0.113282 0.0019,-0.0059 0.0021,-0.0061 0.0039,-0.01172 0.07596,-0.610506 0.01306,-0.44852 0.224609,-1.203125 0.01721,-0.06138 0.01683,-0.148032 0.07422,-0.175782 0.01718,-0.0083 0.01956,0.0078 0.01953,0.03125 0.01256,-0.346841 0.046,-0.492701 0.0039,-0.884765 -0.06186,-0.612198 -0.206514,-1.095768 -0.271484,-1.816406 -0.05629,-0.255603 -0.125708,-0.50836 -0.173828,-0.765626 -0.0034,-0.01826 0.01082,-0.03679 0.0059,-0.05469 -0.121511,-0.437229 -0.285346,-0.866672 -0.466797,-1.28125 -0.03538,-0.149681 -0.0429,-0.191192 -0.04687,-0.244141 -0.06066,-0.127376 -0.120793,-0.254618 -0.183594,-0.380859 0.01396,-0.02849 0.01877,-0.02955 0,-0.07617 -0.08281,-0.205669 -0.182828,-0.404125 -0.261718,-0.611328 -0.06616,-0.173754 -0.103951,-0.35896 -0.173828,-0.53125 -0.09897,-0.244006 -0.410605,-0.870858 -0.548829,-1.152344 -0.03704,-0.07542 -0.06487,-0.148433 -0.09766,-0.222656 -0.208544,-0.295982 -0.392478,-0.567386 -0.554687,-0.822266 -0.227707,0.08128 -0.458639,-0.01725 -0.921875,-0.24414 0.0033,0.0039 0.0065,0.0078 0.0098,0.01172 0.02405,0.02812 0.01405,0.02855 -0.01172,0.01758 0.05209,0.07889 0.09277,0.160216 0.07812,0.248046 -0.434762,2.607325 -0.06865,2.145247 -1.724609,2.792969 -1.085555,-0.153363 -0.8449,0.0025 -1.550781,-0.392578 -0.188527,-0.105505 -0.365355,-0.230505 -0.546875,-0.347656 -0.08195,-0.05289 -0.298218,-0.08955 -0.240235,-0.167969 0.0029,-0.004 0.0065,-0.0049 0.0098,-0.0078 -0.07699,-0.03136 -0.154868,-0.06116 -0.230469,-0.0957 -0.573476,-0.26201 -1.162378,-0.725841 -1.498047,-1.267578 -0.1471,-0.237408 -0.243386,-0.502591 -0.365234,-0.753906 0.0027,-0.08268 0.0053,-0.165364 0.0078,-0.248047 -0.238345,-0.528164 -0.581929,-1.353101 -0.238282,-0.582031 -0.04336,-0.373994 -0.148836,-0.747076 -0.128906,-1.123047 0.06625,-1.249864 0.859519,-2.399739 1.755859,-3.402344 0.03058,-0.289764 0.06987,-0.577314 0.113282,-0.865234 0.04593,-0.304586 0.0365,-0.645185 0.208984,-0.900391 0.368325,-0.544961 0.711264,-1.512491 1.363281,-1.425781 0.09996,0.01329 0.193467,0.02859 0.285157,0.04492 -0.275591,-0.439621 -0.692137,-0.991919 -0.871094,-1.242187 -0.279901,-0.456234 -0.580955,-0.900671 -0.839844,-1.369141 -0.05732,-0.103735 -0.06869,-0.226556 -0.103516,-0.339844 0.0019,-0.02782 0.0175,-0.05679 0.0059,-0.08203 -0.269399,-0.574189 -0.751674,-1.015321 -1.050781,-1.572266 -0.09132,-0.17003 -0.15054,-0.330115 -0.220703,-0.49414 -1.152123,-0.736589 -1.196709,-2.096681 -0.134766,-2.878907 0.250143,-0.449886 0.653451,-0.719645 1.138672,-0.736328 0.213646,-0.0073 0.445639,0.0545 0.683594,0.150391 0.118567,-0.0072 0.240463,-0.01056 0.367187,-0.0098 l 0.121094,0.002 c 0.263777,-0.0076 0.529217,-0.02102 0.792969,-0.02734 -0.0886,-0.249479 -0.128615,-0.486139 -0.148438,-0.714844 -0.05867,-0.03317 -0.117613,-0.06565 -0.175781,-0.09961 -3.354416,-1.958201 -1.185017,-5.436612 2.011719,-3.4375 -0.08228,-0.334144 -0.07937,-0.595935 -0.107422,-1.007812 0.0051,-0.412188 0.06877,-0.818634 0.07617,-1.230469 0.0037,-0.206584 -0.02482,-0.415363 -0.0059,-0.621093 0.02297,-0.247655 0.06907,-0.491961 0.103516,-0.738282 0.16682,-0.852144 0.575163,-1.635082 0.908203,-2.435547 0.04056,-0.09101 0.08102,-0.182219 0.121094,-0.273437 0.0011,-0.008 0.005,-0.02191 0.0059,-0.0293 0.0023,-0.01993 0.03899,-0.07123 0.03125,-0.05273 -0.01158,0.02767 -0.02505,0.05457 -0.03711,0.08203 -0.0419,0.299572 -0.259586,1.023207 -0.06836,0.822266 0.61351,-0.64469 1.256559,-1.388482 1.417969,-2.263672 0.02899,-0.157209 0.04301,-0.268137 0.0625,-0.394532 -0.279139,0.140892 -0.559055,0.280242 -0.833984,0.425782 -0.386207,0.845425 -0.664748,1.578867 -0.230469,0.476562 0.0823,-0.264664 0.0661,-0.204272 0.173828,-0.447266 -0.03313,0.01777 0.06164,-0.138094 0.04687,-0.103515 -0.03113,0.07292 -0.02544,0.05955 -0.04492,0.103515 0.01816,-0.0097 0.03646,-0.01965 0.05469,-0.0293 0.301067,-0.659065 0.663657,-1.37877 0.826172,-1.373047 0.07052,-0.114154 0.153545,-0.248599 0.179687,-0.292969 0.0074,-0.01263 0.01803,-0.03602 0.02344,-0.05078 l -0.01172,0.01367 c 0.0051,-0.01003 0.01047,-0.02409 0.01367,-0.02734 0.0056,-0.0057 0.001,0.0057 -0.002,0.01367 l 0.199219,-0.238281 c -0.0058,-0.0059 -0.01182,-0.01164 -0.01758,-0.01758 -1.127508,0.229487 -2.240281,0.523558 -3.337891,0.871094 -3.75779,1.189828 -4.781566,-2.652743 -1.02539,-3.847656 1.344304,-0.427651 2.711517,-0.770512 4.097656,-1.03125 0.315657,-0.05938 0.681693,-0.135254 1.042969,-0.150391 0.361276,-0.01514 0.7186,0.03036 1.021484,0.207032 0.04282,0.02497 0.08301,0.05351 0.123047,0.08203 0.553014,-0.116299 1.090548,-0.110712 1.69336,0.05859 0.05391,0.01514 0.106087,0.03639 0.158203,0.05664 v -3.089844 z m 73.671876,7.44336 c -0.148598,0.240547 -0.322564,0.525135 -0.361329,0.636719 -0.01465,0.04218 0.07864,-0.04582 0.117188,-0.06836 0.109637,-0.05184 0.215048,-0.111542 0.322265,-0.169922 0.01785,-0.280542 -0.01413,-0.396183 -0.07812,-0.398437 z m 0.07812,0.398437 c -0.0086,0.134605 -0.03709,0.333304 -0.07031,0.548828 0.461939,-0.233154 0.915592,-0.477571 1.3125,-0.804687 0.178477,-0.14709 -0.470215,-0.04712 -0.693359,0.01367 -0.193325,0.05266 -0.371678,0.145733 -0.548829,0.242187 z m -1.453124,30.03711 c -0.01023,-0.01549 -0.02245,-0.02952 -0.0332,-0.04492 -0.101247,-0.04959 -0.19073,-0.09475 -0.316406,-0.154297 0.08716,0.04398 0.281614,0.170277 0.34961,0.199219 z m -0.0332,-0.04492 c 0.01106,0.0054 0.02436,0.01032 0.03516,0.01563 -0.02719,-0.03148 -0.05567,-0.06136 -0.08398,-0.0918 0.0166,0.02519 0.03128,0.05105 0.04883,0.07617 z M 98.683594,38.0625 c -0.06432,-0.0033 -0.108658,-5.41e-4 -0.06641,0.002 0.08085,0.0046 0.13136,0.01051 0.195312,0.01563 -0.04035,-0.0087 -0.08673,-0.01545 -0.128906,-0.01758 z m -0.466797,1.181641 c 0.03358,0.0806 0.06773,0.160902 0.09961,0.242187 0.0324,0.08261 -0.03112,-0.167721 -0.09961,-0.242187 z m -2.003906,3.101562 c 0.03033,0.01068 0.06368,0.0095 0.09766,0.0078 -0.03244,-8.85e-4 -0.06532,-0.0041 -0.09766,-0.0078 z m 2.71875,0.484375 c -0.02509,0.02815 -0.03861,0.04066 -0.06641,0.07227 -0.01561,0.01775 0.03973,-0.02662 0.05469,-0.04492 0.0053,-0.0064 0.0066,-0.0074 0.01172,-0.01367 z m 0,0.539063 c -0.0094,0.01445 -0.01802,0.03075 -0.02734,0.04492 0.0095,0.0087 0.01803,0.01847 0.02734,0.02734 z M 87.373047,71.474609 c -0.03016,0.313914 -0.0799,0.628032 -0.05469,0.941407 0.0023,0.02844 0.01314,0.05516 0.02148,0.08203 0.01047,-0.34116 0.02025,-0.68237 0.0332,-1.023438 z m 4.896484,0.5625 c 0.0518,0.03419 0.104483,0.06732 0.15625,0.101563 0.04978,0.03293 -0.09074,-0.08436 -0.148437,-0.09961 -0.0026,-6.8e-4 -0.0052,-0.0013 -0.0078,-0.002 z m 3.791016,3.863282 c -0.02991,-0.01636 -0.0099,0.595911 0.05859,0.80664 0.0049,0.01515 0.01393,0.02813 0.01953,0.04297 -0.0038,-0.09348 -0.01024,-0.272327 -0.0625,-0.802734 -0.0063,-0.03102 -0.01135,-0.04454 -0.01563,-0.04687 z m -32.714844,12.15625 c -0.219635,0.0043 -0.392113,0.02111 -0.330078,0.07031 0.01757,-4.82e-4 0.03515,2.51e-4 0.05273,0 0.0919,-0.02774 0.185286,-0.04634 0.277344,-0.07031 z m -7.007812,0.451171 c -0.04691,0.01199 -0.131972,0.05714 -0.185547,0.07031 0.106849,0.02249 0.193932,0.02063 0.216797,-0.05273 0.0066,-0.02125 -0.0071,-0.02376 -0.03125,-0.01758 z m -22.53711,0.644532 c 0.07084,0.02066 0.154915,0.02677 0.208985,0.07617 -0.07515,-0.02739 -0.249887,-0.0881 -0.208985,-0.07617 z m 16.142578,0.609375 c -0.08494,0.03066 -0.174563,0.05549 -0.259765,0.08789 0.01202,3.91e-4 0.01475,-4.31e-4 0.02734,0 0.07377,-0.02035 0.149223,-0.03319 0.220703,-0.06055 0.0096,-0.0037 0.02142,-0.03084 0.01172,-0.02734 z M 35.205078,89.8125 c -0.01,-0.0023 -0.03542,0.01353 -0.02539,0.01563 0.04794,0.0099 0.09642,0.01638 0.144531,0.02539 -0.03943,-0.01448 -0.07838,-0.03157 -0.119141,-0.04102 z m 1.896484,0.701172 c -0.03506,0.04221 0.104152,0.03348 0.15625,0.05078 0.01504,0.0041 0.02802,0.0096 0.04297,0.01367 -0.08805,-0.0477 -0.179082,-0.08871 -0.19922,-0.06445 z m 61.830079,0.09766 c -0.42134,0.787863 -0.994154,1.222683 -1.560547,1.353516 h 1.560547 z m -31.691407,0.707031 c -0.05735,0.0072 -0.1147,0.01056 -0.171875,0.01953 -0.01386,0.0022 -0.02719,0.0074 -0.04102,0.0098 -0.03426,0.207677 -0.0835,0.411835 -0.128906,0.617188 h 0.271484 c 0.180285,-0.409295 0.299631,-0.54217 0.07031,-0.646485 z m -36.607422,0.451172 c 0.02789,0.02395 0.05504,0.04632 0.07227,0.06836 -0.0042,-0.0073 -0.0096,-0.01418 -0.01367,-0.02148 -0.02252,-0.01789 -0.02948,-0.02444 -0.05859,-0.04687 z" />
    </clipPath>
    <clipPath
       clipPathUnits="userSpaceOnUse"
       id="clipPath1834">
      <path
         id="path1836"
         style="fill:#ff0000;fill-opacity:1;fill-rule:nonzero;stroke:none"
         d="m 27.34375,36.804688 v 57.052734 h 77.83008 V 72.527344 c -0.0144,0.01257 -0.0297,0.02561 -0.0449,0.03711 -0.14487,0.109747 -0.28348,0.233706 -0.44532,0.316406 -0.2335,0.119325 -0.48811,0.380437 -0.73242,0.285157 -1.80741,-0.704924 -2.13462,-0.697851 -2.29883,-1.179688 -0.0328,-0.0423 -0.0648,-0.08606 -0.0937,-0.130859 v -0.002 c -0.0159,-0.02476 -0.0328,-0.05026 -0.0469,-0.07617 -0.0286,-0.05248 0.037,0.02371 0.10937,0.113281 -0.0325,-0.11972 -0.0612,-0.264802 -0.0996,-0.451172 0.0667,0.188099 0.13451,0.376355 0.20118,0.564453 0.11343,6.74e-4 0.20228,0.0026 0.30664,0.0039 -0.38095,-0.447172 -0.66751,-0.993796 -1.03516,-1.455078 -0.39581,-0.496617 -0.49446,-0.758225 -0.39258,-0.861328 -0.28893,0.02502 -0.606612,0.04634 -0.998044,0.08789 0.02084,0.07899 0.04291,0.158141 0.05859,0.238281 0.05265,0.269083 0.08574,0.541734 0.128907,0.8125 0.137078,0.92438 0.345817,1.837985 0.445317,2.767578 0.0657,-0.08776 0.05,0.09697 0.0137,0.332032 0.0245,0.05733 0.0165,0.302608 0.0312,0.404296 0.0173,0.119498 0.0238,0.193233 0.0312,0.273438 0.3584,0.284029 0.7142,0.712142 1.03906,1.30664 0.27655,0.506086 0.77014,1.360014 0.97656,1.917969 0.32432,0.876519 0.53012,1.884996 0.4043,2.824219 -0.0325,0.242516 -0.11593,0.477111 -0.17383,0.714844 -0.38044,1.562073 -0.98517,0.975914 -1.60351,0 -0.0131,0.177843 -0.0166,0.246186 -0.0957,0.533203 0.008,-0.0071 0.0194,-0.03058 0.0254,-0.02148 0.0916,0.139083 -0.098,0.74703 -0.13282,0.996094 -0.005,0.03237 0.007,0.06573 0,0.09766 -0.0478,0.219065 -0.10966,0.434807 -0.16406,0.652344 -0.0307,0.07713 -0.019,0.199242 -0.0762,0.248047 -0.0212,0.07533 -0.0449,0.148282 -0.0742,0.220703 -0.044,0.108622 -0.0683,0.161635 -0.0957,0.22461 0.0438,0.02455 -0.0789,0.25258 -0.11328,0.351562 -0.0581,0.167026 -0.14839,0.322151 -0.20899,0.488281 -0.0172,0.0474 0.0861,-0.180699 0.0781,-0.130859 -0.025,0.159105 -0.142237,0.456658 -0.230475,0.677734 0.288735,0.162503 0.245135,0.506901 0.308595,1.65625 0.002,0.04007 -0.017,0.07901 -0.0293,0.117188 -0.0437,0.135084 -0.0863,0.270391 -0.13867,0.402344 -0.104755,0.263883 -0.13919,0.331697 -0.156251,0.359375 -0.01266,0.04116 -0.04842,0.161308 -0.07617,0.251953 -0.0262,0.173355 -0.06985,0.34433 -0.109375,0.515625 0.120789,-0.156618 0.07069,0.01849 -0.02734,0.277343 0.0024,-0.03402 1.61e-4,-0.07547 -0.002,-0.148437 0.0087,-0.04306 0.0194,-0.08603 0.0293,-0.128906 -0.129413,0.16796 -0.456197,0.721412 -1.146485,1.988281 0.119004,-0.09844 0.255727,-0.219896 0.460938,-0.382812 -0.157002,0.133333 -0.569224,0.581284 -0.470703,0.40039 0.004,-0.0073 0.0058,-0.01029 0.0098,-0.01758 -0.245924,0.203422 -0.416542,0.296881 -0.888672,0.384766 -0.184988,0.09236 -0.344106,0.118573 -0.814453,0.15039 -0.133547,0.009 -0.321594,-0.01242 -0.478515,-0.0293 -0.0038,4.1e-5 -0.0052,-1.02e-4 -0.0078,0 -0.01462,5e-4 -0.233933,0.0073 -0.251953,0.0039 -0.710112,-0.135487 -0.660589,-0.09867 -0.898437,-0.208985 -0.426131,0.236082 -1.016639,0.569254 -0.751954,0.339844 0.07157,-0.06203 0.202397,-0.139268 0.339844,-0.214844 -0.162963,0.04934 -0.387215,0.126951 -0.748047,0.269531 -0.0038,0.08564 0.244929,0.05499 -0.515625,0.07422 -1.487221,-0.140392 -0.449977,0.01488 0.03906,-3.828125 -0.562823,0.226053 -0.739288,0.240191 -0.824219,0.25 -0.02,0.01132 -0.04665,0.02502 -0.06836,0.03711 -0.06756,0.059 -0.134263,0.118455 -0.203125,0.175781 0.08097,-0.08534 0.110769,-0.11472 0.144531,-0.144531 -0.07952,0.04373 -0.154827,0.08487 -0.257813,0.138672 -0.262022,0.04077 0.248374,-0.208733 0.603516,-0.404297 0.02207,-0.01687 0.04187,-0.03655 0.06445,-0.05273 0.4104,-0.229275 0.376976,-0.197925 0.703125,-0.43164 0.06759,-0.07245 0.134628,-0.145208 0.205078,-0.214844 0.02373,-0.02345 0.05801,-0.03571 0.08398,-0.05664 0.148986,-0.120089 0.182376,-0.14883 0.27539,-0.226562 8.38e-4,-0.0011 0.0011,-0.0028 0.002,-0.0039 0.03081,-0.04209 0.06325,-0.08392 0.09961,-0.121093 0.0754,-0.07709 0.154168,-0.150505 0.234375,-0.222657 3.48e-4,-8.4e-5 0.0033,-0.0035 0.0039,-0.0039 0.0037,-0.0094 0.06827,-0.07782 0.150391,-0.162109 0.08645,-0.11229 0.16717,-0.232951 0.28125,-0.302735 0.04734,-0.07844 0.103033,-0.149552 0.177734,-0.199218 0.09418,-0.06261 0.192473,-0.118255 0.292969,-0.169922 0.06585,-0.104595 0.129811,-0.201253 0.15625,-0.189453 0.084,-0.320294 0.0891,-0.316539 0.08984,-0.189453 0.04445,-0.115781 0.08763,-0.232147 0.132813,-0.347657 8.55e-4,-0.006 0.0029,-0.01153 0.0039,-0.01758 -0.0054,0.01041 -0.01257,0.02689 -0.01758,0.03516 -0.04552,0.07512 0.03812,-0.215656 0.08398,-0.316407 0.04544,-0.141857 0.101738,-0.28436 0.142578,-0.396484 0.149359,-0.322875 0.236447,-0.679761 0.351562,-1.013672 0.01885,-0.05469 -0.0084,0.05788 -0.03711,0.169922 0.03943,-0.149709 0.07847,-0.299781 0.117187,-0.449219 0.04016,-0.08925 0.04394,-0.204938 0.119141,-0.267578 0.0021,-0.0017 0.0023,7.82e-4 0.0039,0 0.05593,-0.18424 0.03114,-0.09635 0.0059,0 9.1e-4,5.19e-4 0.0034,-0.0013 0.0039,0 0.01898,-0.06022 0.05551,-0.173721 0.146484,-0.480469 2.1e-4,-0.002 0.0017,-0.0039 0.002,-0.0059 0.0071,-0.06744 0.01212,-0.135961 0.02148,-0.203125 0.01377,-0.09879 0.02531,-0.197069 0.05273,-0.292969 0.003,-0.01041 0.02245,0.03226 0.02344,0.02148 0.104261,-1.140398 -0.08475,0.107396 0.119141,-1.078124 0.0037,-0.01248 0.0076,-0.03872 0.01172,-0.05664 0.0027,-0.127535 0.0139,-0.25364 0.0293,-0.378906 -0.01833,0.02631 -0.06013,0.05109 -0.06445,0.0293 -0.03065,-0.154783 -0.02847,-0.279595 -0.0039,-0.388672 -0.208867,-0.738517 -0.693037,-1.464094 -1.035156,-2.107422 -0.474879,-0.892981 -0.60792,-1.692041 -0.511719,-2.328125 -0.256,-0.53233 -0.377329,-1.032348 -0.376953,-1.472657 -0.05417,-0.07065 -0.112472,-0.138266 -0.164062,-0.210937 -0.229432,-0.323181 -0.421272,-0.610677 -0.595703,-0.884766 -0.227707,0.08128 -0.458641,-0.01725 -0.921875,-0.24414 0.0033,0.0039 0.0065,0.0078 0.0098,0.01172 0.02405,0.02812 0.01405,0.02855 -0.01172,0.01758 0.05209,0.07889 0.09277,0.160218 0.07812,0.248046 -0.43476,2.607321 -0.06865,2.145249 -1.724609,2.792969 -1.085553,-0.153363 -0.844902,0.0025 -1.550781,-0.392578 -0.188527,-0.105505 -0.365355,-0.230505 -0.546875,-0.347656 -0.08195,-0.05289 -0.298216,-0.08955 -0.240235,-0.167969 0.0029,-0.004 0.0065,-0.0049 0.0098,-0.0078 -0.07699,-0.03136 -0.154868,-0.06116 -0.230469,-0.0957 -0.573474,-0.262008 -1.162378,-0.725841 -1.498047,-1.267578 -0.147098,-0.237406 -0.243386,-0.502591 -0.365234,-0.753906 0.0027,-0.08268 0.0053,-0.165364 0.0078,-0.248047 -0.238345,-0.528162 -0.581927,-1.353099 -0.238282,-0.582031 -0.04336,-0.373994 -0.148836,-0.747076 -0.128906,-1.123047 0.06625,-1.249862 0.859521,-2.399741 1.755859,-3.402344 0.03058,-0.289762 0.06987,-0.577314 0.113282,-0.865234 0.04593,-0.304586 0.0365,-0.645185 0.208984,-0.900391 0.368325,-0.544959 0.711266,-1.512491 1.363281,-1.425781 0.09996,0.01329 0.193467,0.02859 0.285157,0.04492 -0.275591,-0.439621 -0.692137,-0.991921 -0.871094,-1.242187 -0.279901,-0.456234 -0.580955,-0.900673 -0.839844,-1.369141 -0.05732,-0.103735 -0.06869,-0.226556 -0.103516,-0.339844 0.0019,-0.02782 0.01742,-0.05679 0.0059,-0.08203 -0.269399,-0.574189 -0.751676,-1.015321 -1.050781,-1.572266 -0.09132,-0.17003 -0.150542,-0.330117 -0.220703,-0.49414 -1.152121,-0.736589 -1.196707,-2.096681 -0.134766,-2.878907 0.250143,-0.449884 0.653451,-0.719645 1.138672,-0.736328 0.213646,-0.0073 0.445639,0.0545 0.683594,0.150391 0.118565,-0.0072 0.240463,-0.0105 0.367187,-0.0098 l 0.121094,0.002 c 0.263775,-0.0076 0.529217,-0.02102 0.792969,-0.02734 -0.0886,-0.249479 -0.128615,-0.486139 -0.148438,-0.714844 -0.05867,-0.03317 -0.117613,-0.06565 -0.175781,-0.09961 -3.35441,-1.958197 -1.185011,-5.436608 2.011719,-3.4375 -0.08228,-0.334142 -0.07937,-0.595935 -0.107422,-1.007812 0.0051,-0.412188 0.06877,-0.818634 0.07617,-1.230469 0.0037,-0.206584 -0.02474,-0.415365 -0.0059,-0.621093 0.02297,-0.247655 0.06907,-0.491961 0.103516,-0.738282 0.16682,-0.852142 0.575163,-1.635082 0.908203,-2.435547 0.04056,-0.09101 0.08102,-0.182219 0.121094,-0.273437 0.0011,-0.008 0.005,-0.02191 0.0059,-0.0293 0.0023,-0.01993 0.03899,-0.07123 0.03125,-0.05273 -0.01158,0.02767 -0.02505,0.05457 -0.03711,0.08203 -0.0419,0.299572 -0.259586,1.023205 -0.06836,0.822266 0.61351,-0.64469 1.256559,-1.388484 1.417969,-2.263672 0.02899,-0.157209 0.04301,-0.268137 0.0625,-0.394532 -0.279139,0.140892 -0.559057,0.280242 -0.833984,0.425782 -0.386207,0.845423 -0.664748,1.578865 -0.230469,0.476562 0.0823,-0.264664 0.0661,-0.204272 0.173828,-0.447266 -0.03313,0.01777 0.06164,-0.138094 0.04687,-0.103515 -0.03113,0.07292 -0.02544,0.05955 -0.04492,0.103515 0.01816,-0.0097 0.03646,-0.01965 0.05469,-0.0293 0.301065,-0.659065 0.663657,-1.37877 0.826172,-1.373047 0.07052,-0.114154 0.153545,-0.248599 0.179687,-0.292969 0.0074,-0.01263 0.01803,-0.03602 0.02344,-0.05078 l -0.01172,0.01367 c 0.0051,-0.01003 0.01047,-0.02409 0.01367,-0.02734 0.0056,-0.0057 0.001,0.0057 -0.002,0.01367 l 0.763672,-0.917969 c -0.03099,0.02063 -0.05678,0.0669 -0.09375,0.0625 -0.02769,-0.0033 0.05528,-0.03889 0.05078,-0.06641 -0.0037,-0.02258 -0.05385,0.06388 -0.05469,0.04102 -0.0016,-0.0452 0.09451,-0.11347 0.05078,-0.125 -0.02286,-0.006 -0.03629,0.01467 -0.04687,0.04102 0.138802,-0.410283 0.278652,-0.65561 0.486328,-0.916016 -0.04412,0.04094 -0.04597,0.08511 -0.236328,0.560547 0.0022,0.204928 0.0037,0.410307 0.0059,0.615235 0.035,3.202392 2.501352,-1.899648 3.5,-1.8125 0.230458,0.02011 0.38395,0.316094 0.410156,1.054687 l 0.02539,0.710938 c -0.262971,0.84313 -0.198855,0.818881 -0.423829,1.052734 -0.03598,0.133328 -0.07371,0.2669 -0.121093,0.396484 -0.07864,0.215086 -0.240275,0.479651 -0.388672,0.705078 0.316947,0.28963 0.535823,0.699708 0.818359,1.09961 0.257231,0.364079 0.689294,0.870645 0.890624,1.220703 0.21198,0.3686 0.36716,0.768827 0.55078,1.152344 0.2861,0.603666 0.28292,1.252499 0.38282,1.892578 0.0114,0.07301 0.0422,0.142014 0.0547,0.214844 0.0964,0.56196 0.0892,0.616668 0.12891,1.140625 -0.0175,0.880865 0.0329,1.041828 -0.91797,1.884765 0.0205,-0.0051 0.0422,-0.0082 0.0625,-0.01367 0.0252,-0.0067 0.0314,0.04696 0.0254,0.07227 -0.0297,0.116513 -0.0855,0.225746 -0.12891,0.337891 -0.53356,0.08075 -0.21874,0.54459 -0.375,0.791015 -0.27635,0.435809 -0.36381,0.588664 -0.435542,0.6875 -0.05231,0.09522 -0.103991,0.195899 -0.13086,0.261719 -0.22319,0.07601 -0.0053,0.135262 -0.01953,0.201172 -0.03011,0.139213 -0.0758,0.274697 -0.113281,0.412109 -0.0036,0.0104 -0.0062,0.0171 -0.0098,0.02734 0.138588,0.187638 0.285904,0.400745 0.472663,0.65625 0.5994,0.933585 1.38489,1.746107 1.89843,2.736328 0.1219,0.235051 0.2483,0.473588 0.3125,0.730469 0.14579,0.583452 0.14111,0.809857 0.11329,1.158203 0.0453,-0.01712 0.056,-0.02072 0.0996,-0.03711 0.0288,-0.02399 0.0888,-0.06349 0.084,-0.03906 -5.3e-4,0.0026 -0.001,0.0052 -0.002,0.0078 0.0386,-0.01416 0.10529,-0.03877 0.11914,-0.04297 0.15799,-0.113801 0.3234,-0.212736 0.50781,-0.275391 0.17557,-0.05965 0.34385,-0.08499 0.50391,-0.08203 0.55358,0.01024 1.01367,0.358295 1.37695,0.783203 v -23.58789 z m 67.429688,5.550781 c -0.148598,0.240547 -0.322564,0.525135 -0.361329,0.636719 -0.01465,0.04218 0.07864,-0.04582 0.117188,-0.06836 0.109637,-0.05184 0.21505,-0.111542 0.322265,-0.169922 0.01785,-0.28054 -0.01413,-0.396183 -0.07812,-0.398437 z m 0.07812,0.398437 c -0.0086,0.134605 -0.03709,0.333306 -0.07031,0.548828 0.461939,-0.233152 0.915592,-0.477571 1.3125,-0.804687 0.178477,-0.14709 -0.470217,-0.04712 -0.693359,0.01367 -0.193325,0.05266 -0.371678,0.145733 -0.548829,0.242187 z m -1.453124,30.03711 c -0.01023,-0.01549 -0.02245,-0.02952 -0.0332,-0.04492 -0.101247,-0.04959 -0.19073,-0.09475 -0.316406,-0.154297 0.08716,0.04398 0.281614,0.170277 0.34961,0.199219 z m -0.0332,-0.04492 c 0.01106,0.0054 0.02436,0.01032 0.03516,0.01563 -0.02719,-0.03148 -0.05567,-0.06136 -0.08398,-0.0918 0.0166,0.02519 0.03128,0.05105 0.04883,0.07617 z m 3.640625,7.263672 c 0.02954,0.10443 0.05478,0.207854 0.07227,0.3125 0.0198,-0.145566 0.0482,-0.289446 0.08594,-0.431641 -0.0037,-0.02503 -0.0075,-0.05012 -0.01367,-0.101563 -0.0092,-0.02759 -0.0091,-0.0347 -0.01758,-0.06055 -0.05903,0.0889 -0.103726,0.178033 -0.126953,0.28125 z m -2.246093,6.488281 c -0.03505,0.04553 -0.07151,0.08794 -0.111328,0.126953 0.01647,-0.01478 0.03239,-0.03011 0.04883,-0.04492 7.83e-4,-0.0011 0.0072,-0.01085 0.0078,-0.01172 0.03241,-0.04586 0.167636,-0.150037 0.126953,-0.111328 -0.04408,0.04194 -0.08955,0.0823 -0.134765,0.123047 -0.02528,0.03661 -0.128476,0.197544 -0.25,0.388672 0.04209,-0.03093 0.08488,-0.06085 0.126953,-0.0918 0.08672,-0.125291 0.142438,-0.205376 0.267578,-0.388672 -0.11507,0.108243 -0.213851,0.194519 -0.15625,0.132813 0.140213,-0.150209 0.157631,-0.167365 0.248047,-0.263672 0.02863,-0.04207 0.02424,-0.03525 0.05469,-0.08008 -0.05507,0.0443 -0.14827,0.138334 -0.228515,0.220703 z M 94.648438,86.625 c -0.01305,0.01171 -0.02603,0.02344 -0.03906,0.03516 0.0035,-0.0021 0.01022,-0.0055 0.02344,-0.01758 0.0057,-0.0052 0.01006,-0.01213 0.01563,-0.01758 z m -2.056641,1.634766 c 0.01804,-0.0099 0.04165,-0.02181 0.05859,-0.03125 0.01252,-0.01094 0.02456,-0.0223 0.03711,-0.0332 -0.0271,0.0055 -0.06377,0.03625 -0.0957,0.06445 z m 4.111328,-48.701172 c -0.370477,0.427004 -0.477038,0.487229 -0.533203,0.527344 0.09674,-0.117577 0.159688,-0.212795 0.316406,-0.38086 0.05931,-0.06361 0.273787,-0.212174 0.216797,-0.146484 z m 2.800781,2.421875 c -0.02868,0.0986 -0.05349,0.197592 -0.08008,0.296875 0.03006,-0.05551 0.04174,-0.123921 0.08008,-0.296875 z m -0.30664,0.55664 c -0.08883,0.09372 -0.192234,0.2063 -0.332032,0.365235 -0.01561,0.01775 0.03973,-0.02662 0.05469,-0.04492 0.123984,-0.151693 0.206975,-0.243697 0.277344,-0.320313 z m 0.4375,5.867188 c -0.01304,-0.0013 -0.03485,0.0012 -0.05273,0.002 0.0036,0.03028 0.0086,0.07036 0.01172,0.09961 0.01525,-0.01115 0.03191,-0.01966 0.04687,-0.03125 0.05494,-0.04254 0.04459,-0.06522 -0.0059,-0.07031 z m 0.207031,8.117187 c 0.11443,0.115911 0.235263,0.23798 0.355473,0.371094 -0.0268,-0.191022 -0.15709,-0.311241 -0.355473,-0.371094 z m 2.906253,3.470704 c -0.0285,0.01138 -0.0534,0.02001 -0.084,0.03125 -0.003,0.01282 -0.003,0.02614 -0.006,0.03906 0.03,-0.02374 0.0593,-0.04765 0.0899,-0.07031 z m 2.42578,0.496093 c -0.0264,0.02455 -0.0617,0.176522 -0.11328,0.447266 0.0368,0.01523 0.0772,0.02239 0.11328,0.03906 z m -3.47461,5.908203 c 7.6e-4,0.07943 0,0.158932 0,0.238282 -10e-4,0.450322 -0.002,0.901238 -0.002,1.351562 1e-4,0.306981 -0.091,0.259711 0.0371,0.306641 0.0502,0.198411 0.0795,0.364087 0.0918,0.507812 0.1119,-0.05176 0.31588,-0.103475 0.54688,-0.144531 -0.004,-0.01422 -0.007,-0.02886 -0.0117,-0.04297 0.008,-0.0757 0.0127,-0.113532 0.0156,-0.134765 -0.20764,-0.249213 -0.88067,-0.454105 -0.14453,-0.796875 1e-5,-0.291957 -0.001,-0.585 0,-0.876953 7.9e-4,-0.117325 -0.003,-0.234423 -0.004,-0.351563 -0.18592,0.0088 -0.36328,-0.01153 -0.5293,-0.05664 z m 0.67383,2.259766 c 0.0345,0.121486 0.0613,0.246689 0.0859,0.373047 0.1306,0.0084 0.27574,0.01619 0.44922,0.02148 0.0132,-0.01896 0.024,-0.03908 0.0391,-0.05664 0.10532,-0.122892 0.2198,-0.238653 0.33398,-0.353516 0.006,-0.0097 0.01,-0.0155 0.0156,-0.02539 0.007,-0.01116 0.0228,-0.02662 0.0352,-0.04102 -0.20149,-0.01977 -0.60394,0.01892 -0.95898,0.08203 z m 0.95898,-0.08203 c 0.004,4.41e-4 0.0113,-5e-4 0.0156,0 0.0471,-0.04788 0.0951,-0.09517 0.14062,-0.144531 0.0512,-0.05551 -0.0851,0.0614 -0.15625,0.144531 z m 0.0156,0 c -0.0219,0.0223 -0.0444,0.04422 -0.0664,0.06641 -0.0956,0.157098 -0.17571,0.291265 -0.24023,0.412109 0.25693,0.0063 0.56388,0.0091 0.91601,0.0078 -0.15322,-0.173017 -0.31895,-0.332207 -0.51172,-0.460938 -0.0183,-0.01221 -0.0526,-0.02014 -0.0977,-0.02539 z m -0.88868,0.455078 c -0.33827,-0.02182 -0.53729,-0.05392 -0.63867,-0.08984 -0.007,0.489811 -0.30052,0.641871 -0.87695,0.714844 0.95356,0.164446 3.42948,1.540279 4.23047,1.623047 v -0.619141 c -0.0571,-0.07611 -0.12299,-0.15945 -0.20117,-0.251953 -0.15867,-0.187739 -0.30379,-0.390959 -0.44727,-0.595703 -0.32237,-0.109112 -0.76932,-0.256391 -1.45312,-0.527344 -0.0446,-0.01769 -0.0905,-0.01775 -0.13477,-0.0059 -0.0494,0.124482 -0.0796,0.248579 -0.0898,0.384765 0.41116,1.013964 -0.009,0.291119 1.32226,1.199219 0.0794,0.05416 -0.14439,-0.02799 -0.26562,-0.06445 0.0144,0.0039 0.0324,0.0086 0.0254,0.0039 -0.33598,-0.225917 -0.76987,-0.345028 -1.04297,-0.634765 -0.005,-0.01671 -0.0101,-0.02502 -0.0176,-0.05273 0.002,0.01372 0.004,0.02496 0.006,0.03906 -0.0241,-0.02646 -0.0491,-0.05251 -0.0703,-0.08203 -0.0812,-0.113317 -0.13987,-0.238283 -0.18555,-0.36914 -0.038,0.146044 -0.0764,0.277903 -0.18945,0.246094 -0.1405,-0.03955 0.0183,-0.215545 0.14843,-0.375 -0.005,-0.01746 -0.009,-0.03512 -0.0137,-0.05273 -0.0399,0.03415 -0.0434,0.03877 -0.10937,0.09375 -0.0332,0.02768 0.0537,-0.07139 0.0918,-0.0918 0.005,-0.0025 0.009,-0.0071 0.0137,-0.0098 -0.0408,-0.157574 -0.07,-0.320288 -0.10157,-0.482422 z m 0.10157,0.482422 c 7e-4,0.0027 0.003,0.0051 0.004,0.0078 0.0192,-0.01642 0.0385,-0.0325 0.0527,-0.04492 -0.0187,0.01287 -0.0381,0.02648 -0.0566,0.03711 z m -0.16016,-1.001953 c 0.007,0.03819 0.008,0.07755 0.0352,0.107422 0.003,-0.03714 -0.0124,-0.07266 -0.0352,-0.107422 z m 0.27344,0.880859 c 9.7e-4,0.0056 0.006,0.01996 0.008,0.0293 7.2e-4,-6.57e-4 0.003,-0.0033 0.004,-0.0039 -0.002,-0.0059 -0.004,-0.01167 -0.006,-0.01758 -0.007,-0.02234 -0.008,-0.02223 -0.006,-0.0078 z m 0.0137,0.03711 c -0.001,8.66e-4 -0.003,0.0011 -0.004,0.002 v 0.002 c 2.8e-4,0.0013 -2.9e-4,0.0025 0,0.0039 0.001,-0.0029 0.003,-0.0052 0.004,-0.0078 z m 0.0117,0.03906 c -0.002,0.0034 -0.004,0.0062 -0.006,0.0098 0.0149,0.06705 0.0341,0.151704 0.043,0.195313 0.007,0.0213 0.0255,0.08652 0.0215,0.06445 -0.0161,-0.08167 -0.0352,-0.162772 -0.0527,-0.24414 -0.002,-0.0084 -0.003,-0.01705 -0.006,-0.02539 z M 102.59375,69.625 c -0.0499,0.103083 -0.1028,0.21249 -0.0762,0.160156 0.039,-0.07652 0.0534,-0.107371 0.0781,-0.158203 z m 2.57227,0.462891 c 0.002,0.005 0.005,0.01247 0.008,0.01758 v -0.0098 c -0.003,-0.0025 -0.005,-0.0054 -0.008,-0.0078 z m -17.792973,1.386718 c -0.03016,0.313914 -0.0799,0.628032 -0.05469,0.941407 0.0023,0.02844 0.01314,0.05516 0.02148,0.08203 0.01047,-0.34116 0.02025,-0.68237 0.0332,-1.023438 z m 4.896484,0.5625 c 0.0518,0.03419 0.104483,0.06732 0.15625,0.101563 0.04978,0.03293 -0.09074,-0.08436 -0.148437,-0.09961 -0.0026,-6.78e-4 -0.0052,-0.0013 -0.0078,-0.002 z m 4.369141,13.22461 c -0.04902,0.0042 -0.181254,0.04239 -0.294922,0.07617 -0.09308,0.07863 -0.193351,0.165934 -0.269531,0.228515 0.191406,-0.08517 0.381226,-0.173257 0.558593,-0.283203 0.02959,-0.01834 0.02796,-0.0234 0.0059,-0.02148 z m 3.210937,0.341797 c -0.0024,0.0082 -0.02006,0.0721 -0.02344,0.08398 0.0022,0.001 0.0056,7.37e-4 0.0078,0.002 0.01813,-0.07704 0.0339,-0.14788 0.01563,-0.08594 z m -4.261718,0.34375 c -0.03775,0.02716 -0.05182,0.03682 -0.07617,0.05273 0.02351,-0.0092 0.04604,-0.01565 0.07031,-0.01758 0.0025,-0.01163 0.0033,-0.02355 0.0059,-0.03516 z m -0.292969,0.01758 c -0.01987,0.01814 -0.06416,0.06308 -0.13086,0.126953 -0.01153,0.01552 -0.03458,0.04766 -0.05078,0.07031 0.0014,-4.28e-4 0.0026,3.09e-4 0.0039,0 0.103497,-0.110298 0.208298,-0.225175 0.177734,-0.197265 z m 4.421875,0.207031 c -0.01544,0.03288 -0.03288,0.065 -0.04883,0.09766 -0.01272,0.04758 -0.009,0.03372 -0.02344,0.08789 -0.01714,0.06431 0.04861,-0.123327 0.07227,-0.185547 z m -0.214844,0.445313 c -0.0021,0.0045 -0.0038,0.0092 -0.0059,0.01367 1.7e-4,0.0098 0.0017,0.01946 0.002,0.0293 0.0014,-0.01418 0.0025,-0.02751 0.0039,-0.04297 z m -2.957031,0.974609 c -0.02804,0.01244 -0.0573,0.02534 -0.08203,0.03906 0.02575,0.131871 0.0682,0.20913 0.152343,0.257813 0.09119,-0.04541 0.188944,-0.09306 0.291016,-0.142578 -0.01677,-0.01533 -0.03268,-0.03091 -0.04883,-0.04687 -0.02441,-0.01543 -0.01891,-0.01156 -0.04687,-0.0293 -0.08658,-0.03405 -0.177489,-0.05857 -0.265625,-0.07813 z m 2.757812,0.666015 c 0.0014,-0.0043 -3.5e-4,-0.0023 -0.0098,0.0078 -0.05502,0.06028 -0.103887,0.126964 -0.154297,0.191406 0.0083,0.0024 0.01508,0.0054 0.02344,0.0078 0.0603,-0.07923 0.135103,-0.189941 0.140625,-0.207032 z m 0.541016,0.002 c -0.01573,0.0198 -0.0012,-0.02923 -0.04687,0.126953 0.04554,-0.130743 0.04058,-0.110353 0.04687,-0.126953 z m -0.205078,1.03125 c -0.0075,0.102663 -0.05102,0.12216 -0.22461,0.61914 -0.02305,0.06599 -0.113044,0.25468 -0.09375,0.1875 0.02661,-0.09264 0.202809,-0.501752 0.31836,-0.80664 z" />
    </clipPath>
  </defs>
  <g
     inkscape:label="Layer 1"
     inkscape:groupmode="layer"
     id="layer1"
     transform="translate(-11.509195,-16.855106)">
    <path
       id="path236"
       style="font-variation-settings:normal;opacity:1;vector-effect:none;fill:none;fill-opacity:1;stroke:#000000;stroke-width:0.999999px;stroke-linecap:butt;stroke-linejoin:miter;stroke-miterlimit:4;stroke-dasharray:none;stroke-dashoffset:0;stroke-opacity:1;-inkscape-stroke:none;stop-color:#000000;stop-opacity:1"
       d="m 91.027344,35.421875 c -6.159236,0.209515 -62.806641,0.8125 -62.806641,0.8125 0,0 -5.675771,0.02829 -6.488281,2.869141 -0.296493,43.729682 0,43.871093 0,43.871093 0,0 -0.593402,8.490235 4.90039,8.490235 5.493797,0 67.78711,-0.484375 67.78711,-0.484375 0,0 4.090141,0.330888 4.009766,-5.669922 -0.02566,-1.914764 -0.08322,-9.834537 -0.132813,-16.386719 -0.398535,0.824645 -1.332869,0.667849 -1.224609,-0.492187 0.03262,-0.349544 0.119127,-1.256938 0.148437,-1.609375 0.01356,-0.162978 0.01359,-0.328123 0.03516,-0.490235 0.02914,-0.219048 0.10945,-0.430458 0.13086,-0.65039 0.0092,-0.09405 0.0024,-0.188729 0.0039,-0.283203 -0.0155,-0.677915 -0.0665,-1.356916 -0.03516,-2.035157 0.0032,-0.23254 2.98e-4,-0.466014 0,-0.699219 -0.86312,0.04669 -1.725295,-0.233013 -2.591797,-0.167968 -0.003,2.22e-4 -0.0049,-2.07e-4 -0.0078,0 0.02277,0.137294 0.04393,0.27388 0.06641,0.410156 0.180533,1.094593 0.0185,0.461219 0.27539,1.314453 0.348323,0.914827 -0.01039,0.0652 0.365235,0.767578 0.42464,0.794035 0.08356,0.265473 0.359375,0.677735 0.395473,0.59111 0.250187,1.072741 -0.07617,1.240234 0.125292,0.446789 0.199756,0.902309 0.166015,1.314453 -0.01398,0.170792 -0.09083,0.329036 -0.136718,0.494141 -0.214841,0.772978 -0.836403,0.03555 -1.181641,-0.453125 0.0047,0.125337 -0.03597,0.03683 -0.08984,-0.06641 -0.257689,-0.49371 -0.149808,-0.272816 0.08984,0.06641 -0.0025,-0.06747 -0.018,-0.19521 -0.05273,-0.419922 -0.07136,-0.461722 -0.208352,-0.906799 -0.390625,-1.333985 -0.181218,0.742463 -0.67786,2.431946 -0.888672,3.158204 -0.324976,1.115301 -0.180902,0.648139 -0.421875,1.410156 -0.409815,1.295941 -1.719475,0.881541 -1.308594,-0.414063 0.231859,-0.731106 0.09047,-0.275064 0.412109,-1.378906 0.18289,-0.629849 0.733815,-2.50047 0.88086,-3.109375 0.154637,-0.640343 0.208921,-1.042477 0.255859,-1.476562 -0.01606,-0.02494 -0.03154,-0.04961 -0.05078,-0.07227 -0.127831,-0.150507 -0.308185,-0.248378 -0.462891,-0.371094 -0.558032,-0.442641 -0.176959,-0.171242 -0.832031,-0.599609 -0.888722,-0.581159 -0.656472,-1.427388 0.03125,-1.416016 0.192562,0.0032 0.420756,0.0741 0.669922,0.236328 0.620347,0.4039 0.441647,0.275056 0.833984,0.585938 0.0234,-0.185692 0.0655,-0.532764 0.07813,-0.626953 -0.09586,-0.543288 -0.202232,-1.081877 -0.359375,-1.619141 -0.08105,-0.277103 -0.170744,-0.554785 -0.304687,-0.810547 -0.106319,-0.203015 -0.27198,-0.368449 -0.408203,-0.552734 -0.55547,-0.751427 -0.280808,-1.439884 0.214843,-1.445313 0.225298,-0.0025 0.497531,0.137448 0.75586,0.47461 0.177992,0.232309 0.390469,0.439825 0.533203,0.695312 0.08929,0.159836 0.169201,0.323791 0.242187,0.490235 0.08996,-0.04471 0.185064,-0.06531 0.277344,-0.06055 0.342696,0.01768 0.655091,0.373784 0.595703,1.050781 -0.02141,0.244076 -0.0263,0.294245 -0.04102,0.464844 0.06899,-8.26e-4 0.13797,-9.3e-4 0.207031,-0.002 0.09904,-0.0014 0.19803,-0.0016 0.296875,0.0039 0.619798,0.03458 1.23256,0.149251 1.853516,0.175781 0.02772,0.0012 0.09032,7.38e-4 0.142578,0 h 0.002 c 3.1e-5,-0.584686 2.18e-4,-1.169098 0,-1.753906 -2.55e-4,-0.679593 0.344251,-1.019403 0.6875,-1.019531 0.05768,-2.2e-5 0.11588,0.01011 0.171875,0.0293 -0.07294,-10.309317 -0.138672,-20.097657 -0.138672,-20.097657 0,0 -0.889588,-3.244671 -7.048828,-3.035156 z"
       clip-path="url(#clipPath706)" />
    <path
       id="path346"
       style="font-variation-settings:normal;opacity:1;vector-effect:none;fill:none;fill-opacity:1;stroke:#000000;stroke-width:0.999999px;stroke-linecap:butt;stroke-linejoin:miter;stroke-miterlimit:4;stroke-dasharray:none;stroke-dashoffset:0;stroke-opacity:1;-inkscape-stroke:none;stop-color:#000000;stop-opacity:1"
       d="m 97.269531,37.314453 c -6.159236,0.209515 -62.804687,0.8125 -62.804687,0.8125 0,0 -5.67772,0.0283 -6.490235,2.869141 -0.296488,43.729682 0,43.871094 0,43.871094 0,0 -0.593406,8.490234 4.900391,8.490234 5.493797,0 67.78711,-0.484375 67.78711,-0.484375 0,0 4.0901,0.330888 4.00977,-5.669922 -0.0804,-6.00081 -0.35352,-46.853516 -0.35352,-46.853516 0,0 -0.88961,-3.244671 -7.048829,-3.035156 z m -4.779297,20.691406 c 0.225298,-0.0025 0.497531,0.137448 0.75586,0.47461 0.177992,0.232309 0.390469,0.439825 0.533203,0.695312 0.08929,0.159836 0.169201,0.323791 0.242187,0.490235 0.08996,-0.04471 0.185064,-0.06531 0.277344,-0.06055 0.342696,0.01768 0.655091,0.373784 0.595703,1.050781 -0.02141,0.244076 -0.0263,0.294245 -0.04102,0.464844 0.06899,-8.26e-4 0.13797,-9.3e-4 0.207031,-0.002 0.09904,-0.0014 0.19803,-0.0016 0.296875,0.0039 0.619798,0.03458 1.23256,0.149251 1.853516,0.175781 0.02772,0.0012 0.09032,7.38e-4 0.142578,0 h 0.002 c 3.1e-5,-0.584686 2.18e-4,-1.169098 0,-1.753906 -2.55e-4,-0.679593 0.344251,-1.019403 0.6875,-1.019531 0.343244,-1.28e-4 0.685293,0.339937 0.685547,1.019531 2.13e-4,0.530093 5.5e-5,1.059898 0,1.589844 0.104806,0.0036 0.209064,0.01003 0.314453,0.02539 0.125995,0.01837 0.246281,0.06618 0.36914,0.09961 1.311509,0.356877 0.778689,1.953121 -0.417968,1.308593 -0.08073,-0.04348 -0.171133,-0.06686 -0.265625,-0.07813 8.18e-4,0.315305 0.0033,0.63074 -0.002,0.945313 -0.04304,0.673128 0.04191,1.34826 0.03711,2.021484 -0.0095,0.162215 -0.01175,0.324794 -0.0293,0.486328 -0.01036,0.09543 -0.03629,0.188999 -0.05469,0.283203 -0.018,0.06817 -0.04579,0.135139 -0.05469,0.205079 -0.08426,0.663241 -0.07868,1.337819 -0.179688,2 -0.20496,1.343643 -1.499342,1.353306 -1.373046,0 0.03262,-0.349544 0.119127,-1.256938 0.148437,-1.609375 0.01356,-0.162978 0.01359,-0.328123 0.03516,-0.490235 0.02914,-0.219048 0.10945,-0.430458 0.13086,-0.65039 0.0092,-0.09405 0.0024,-0.188729 0.0039,-0.283203 -0.0155,-0.677915 -0.0665,-1.356916 -0.03516,-2.035157 0.0032,-0.23254 2.98e-4,-0.466014 0,-0.699219 -0.86312,0.04669 -1.725295,-0.233013 -2.591797,-0.167968 -0.003,2.22e-4 -0.0049,-2.07e-4 -0.0078,0 0.02277,0.137294 0.04393,0.27388 0.06641,0.410156 0.180533,1.094593 0.0185,0.461219 0.27539,1.314453 0.348323,0.914827 -0.01039,0.0652 0.365235,0.767578 0.42464,0.794035 0.08356,0.265473 0.359375,0.677735 0.395473,0.59111 0.250187,1.072741 -0.07617,1.240234 0.125292,0.446789 0.199756,0.902309 0.166015,1.314453 -0.01398,0.170792 -0.09083,0.329036 -0.136718,0.494141 -0.214841,0.772978 -0.836403,0.03555 -1.181641,-0.453125 0.0047,0.125337 -0.03597,0.03683 -0.08984,-0.06641 -0.257689,-0.49371 -0.149808,-0.272816 0.08984,0.06641 -0.0025,-0.06747 -0.018,-0.19521 -0.05273,-0.419922 -0.07136,-0.461722 -0.208352,-0.906799 -0.390625,-1.333985 -0.181218,0.742463 -0.67786,2.431946 -0.888672,3.158204 -0.324976,1.115301 -0.180902,0.648139 -0.421875,1.410156 -0.409815,1.295941 -1.719475,0.881541 -1.308594,-0.414063 0.231859,-0.731106 0.09047,-0.275064 0.412109,-1.378906 0.18289,-0.629849 0.733815,-2.50047 0.88086,-3.109375 0.154637,-0.640343 0.208921,-1.042477 0.255859,-1.476562 -0.01606,-0.02494 -0.03154,-0.04961 -0.05078,-0.07227 -0.127831,-0.150507 -0.308185,-0.248378 -0.462891,-0.371094 -0.558032,-0.442641 -0.176959,-0.171242 -0.832031,-0.599609 -0.888722,-0.581159 -0.656472,-1.427388 0.03125,-1.416016 0.192562,0.0032 0.420756,0.0741 0.669922,0.236328 0.620347,0.4039 0.441647,0.275056 0.833984,0.585938 0.0234,-0.185692 0.0655,-0.532764 0.07813,-0.626953 -0.09586,-0.543288 -0.202232,-1.081877 -0.359375,-1.619141 -0.08105,-0.277103 -0.170744,-0.554785 -0.304687,-0.810547 -0.106319,-0.203015 -0.27198,-0.368449 -0.408203,-0.552734 -0.55547,-0.751427 -0.280808,-1.439884 0.214843,-1.445313 z"
       clip-path="url(#clipPath1834)" />
    <path
       id="path710"
       style="font-variation-settings:normal;opacity:1;vector-effect:none;fill:#ff9614;fill-opacity:1;stroke:#000000;stroke-width:0.999999px;stroke-linecap:butt;stroke-linejoin:miter;stroke-miterlimit:4;stroke-dasharray:none;stroke-dashoffset:0;stroke-opacity:1;-inkscape-stroke:none;stop-color:#000000;stop-opacity:1"
       d="m 97.269531,37.314453 c -6.159236,0.209515 -62.804687,0.8125 -62.804687,0.8125 0,0 -5.67772,0.0283 -6.490235,2.869141 -0.296488,43.729682 0,43.871094 0,43.871094 0,0 -0.593406,8.490234 4.900391,8.490234 5.493797,0 67.78711,-0.484375 67.78711,-0.484375 0,0 4.0901,0.330888 4.00977,-5.669922 -0.0804,-6.00081 -0.35352,-46.853516 -0.35352,-46.853516 0,0 -0.88961,-3.244671 -7.048829,-3.035156 z m -4.779297,20.691406 c 0.225298,-0.0025 0.497531,0.137448 0.75586,0.47461 0.177992,0.232309 0.390469,0.439825 0.533203,0.695312 0.08929,0.159836 0.169201,0.323791 0.242187,0.490235 0.08996,-0.04471 0.185064,-0.06531 0.277344,-0.06055 0.342696,0.01768 0.655091,0.373784 0.595703,1.050781 -0.02141,0.244076 -0.0263,0.294245 -0.04102,0.464844 0.06899,-8.26e-4 0.13797,-9.3e-4 0.207031,-0.002 0.09904,-0.0014 0.19803,-0.0016 0.296875,0.0039 0.619798,0.03458 1.23256,0.149251 1.853516,0.175781 0.02772,0.0012 0.09032,7.38e-4 0.142578,0 h 0.002 c 3.1e-5,-0.584686 2.18e-4,-1.169098 0,-1.753906 -2.55e-4,-0.679593 0.344251,-1.019403 0.6875,-1.019531 0.343244,-1.28e-4 0.685293,0.339937 0.685547,1.019531 2.13e-4,0.530093 5.5e-5,1.059898 0,1.589844 0.104806,0.0036 0.209064,0.01003 0.314453,0.02539 0.125995,0.01837 0.246281,0.06618 0.36914,0.09961 1.311509,0.356877 0.778689,1.953121 -0.417968,1.308593 -0.08073,-0.04348 -0.171133,-0.06686 -0.265625,-0.07813 8.18e-4,0.315305 0.0033,0.63074 -0.002,0.945313 -0.04304,0.673128 0.04191,1.34826 0.03711,2.021484 -0.0095,0.162215 -0.01175,0.324794 -0.0293,0.486328 -0.01036,0.09543 -0.03629,0.188999 -0.05469,0.283203 -0.018,0.06817 -0.04579,0.135139 -0.05469,0.205079 -0.08426,0.663241 -0.07868,1.337819 -0.179688,2 -0.20496,1.343643 -1.499342,1.353306 -1.373046,0 0.03262,-0.349544 0.119127,-1.256938 0.148437,-1.609375 0.01356,-0.162978 0.01359,-0.328123 0.03516,-0.490235 0.02914,-0.219048 0.10945,-0.430458 0.13086,-0.65039 0.0092,-0.09405 0.0024,-0.188729 0.0039,-0.283203 -0.0155,-0.677915 -0.0665,-1.356916 -0.03516,-2.035157 0.0032,-0.23254 2.98e-4,-0.466014 0,-0.699219 -0.86312,0.04669 -1.725295,-0.233013 -2.591797,-0.167968 -0.003,2.22e-4 -0.0049,-2.07e-4 -0.0078,0 0.02277,0.137294 0.04393,0.27388 0.06641,0.410156 0.180533,1.094593 0.0185,0.461219 0.27539,1.314453 0.348323,0.914827 -0.01039,0.0652 0.365235,0.767578 0.42464,0.794035 0.08356,0.265473 0.359375,0.677735 0.395473,0.59111 0.250187,1.072741 -0.07617,1.240234 0.125292,0.446789 0.199756,0.902309 0.166015,1.314453 -0.01398,0.170792 -0.09083,0.329036 -0.136718,0.494141 -0.214841,0.772978 -0.836403,0.03555 -1.181641,-0.453125 0.0047,0.125337 -0.03597,0.03683 -0.08984,-0.06641 -0.257689,-0.49371 -0.149808,-0.272816 0.08984,0.06641 -0.0025,-0.06747 -0.018,-0.19521 -0.05273,-0.419922 -0.07136,-0.461722 -0.208352,-0.906799 -0.390625,-1.333985 -0.181218,0.742463 -0.67786,2.431946 -0.888672,3.158204 -0.324976,1.115301 -0.180902,0.648139 -0.421875,1.410156 -0.409815,1.295941 -1.719475,0.881541 -1.308594,-0.414063 0.231859,-0.731106 0.09047,-0.275064 0.412109,-1.378906 0.18289,-0.629849 0.733815,-2.50047 0.88086,-3.109375 0.154637,-0.640343 0.208921,-1.042477 0.255859,-1.476562 -0.01606,-0.02494 -0.03154,-0.04961 -0.05078,-0.07227 -0.127831,-0.150507 -0.308185,-0.248378 -0.462891,-0.371094 -0.558032,-0.442641 -0.176959,-0.171242 -0.832031,-0.599609 -0.888722,-0.581159 -0.656472,-1.427388 0.03125,-1.416016 0.192562,0.0032 0.420756,0.0741 0.669922,0.236328 0.620347,0.4039 0.441647,0.275056 0.833984,0.585938 0.0234,-0.185692 0.0655,-0.532764 0.07813,-0.626953 -0.09586,-0.543288 -0.202232,-1.081877 -0.359375,-1.619141 -0.08105,-0.277103 -0.170744,-0.554785 -0.304687,-0.810547 -0.106319,-0.203015 -0.27198,-0.368449 -0.408203,-0.552734 -0.55547,-0.751427 -0.280808,-1.439884 0.214843,-1.445313 z"
       clip-path="url(#clipPath646)"
       transform="matrix(0.33284767,0,0,0.21746166,71.502982,52.265494)" />
    <ellipse
       style="fill:#ffffff;fill-opacity:0.943088;stroke:#ffffff;stroke-opacity:1"
       id="path764"
       cx="86.395523"
       cy="66.568222"
       rx="2.4758372"
       ry="2.5126722" />
    <path
       style="font-variation-settings:normal;opacity:1;vector-effect:none;fill:#ff6600;fill-opacity:0.943088;stroke:#000000;stroke-width:0.999999px;stroke-linecap:butt;stroke-linejoin:miter;stroke-miterlimit:4;stroke-dasharray:none;stroke-dashoffset:0;stroke-opacity:1;-inkscape-stroke:none;stop-color:#000000;stop-opacity:1"
       d="m 79.612666,37.676129 c 0,0 4.422805,7.306499 -1.138439,12.463905 -5.561244,5.157407 -14.710148,4.160148 -15.071532,12.891681 -0.361384,8.731533 0.311304,11.981065 3.255707,15.714472 2.944403,3.733407 6.527572,4.409481 5.156778,9.193118 -1.370794,4.783637 -1.272135,5.240571 -1.272135,5.240571 L 32.74046,93.146389 c 0,0 -4.17832,-0.203494 -4.553569,-3.7753 -0.375249,-3.571805 -0.08798,-49.080214 -0.08798,-49.080214 0,0 2.063875,-2.000446 6.20412,-2.114269 4.140245,-0.113823 45.309637,-0.500477 45.309637,-0.500477 z"
       id="path1665" />
    <path
       style="fill:#ff9614;fill-opacity:1;stroke:#ff9614;stroke-width:0.1373;stroke-opacity:1"
       d="m 81.529395,72.026027 -0.38523,-0.330953 -0.06865,-2.518017 c -0.03776,-1.38491 -0.05082,-3.760329 -0.02904,-5.278709 l 0.03961,-2.760691 0.372287,-0.182201 c 0.293687,-0.143735 2.688573,-0.206149 11.34343,-0.295626 6.034129,-0.06238 10.985148,-0.09735 11.002278,-0.0777 0.0171,0.01965 0.0761,2.677026 0.13112,5.905287 l 0.1,5.869565 H 92.974904 81.914626 Z m 10.942001,0.05635 c 0,-0.07551 -0.06543,-0.1373 -0.145403,-0.1373 -0.07997,0 -0.107218,0.06179 -0.06055,0.1373 0.04667,0.07551 0.112102,0.1373 0.145403,0.1373 0.0333,0 0.06055,-0.06179 0.06055,-0.1373 z m -4.420333,-2.917952 c 1.486815,-0.983928 1.817901,-3.181329 0.6862,-4.554279 -1.254708,-1.522178 -3.66174,-1.439314 -4.821472,0.165983 -0.343661,0.475695 -0.435814,0.755989 -0.480794,1.462392 -0.06693,1.051122 0.132509,1.719688 0.708794,2.376041 0.644766,0.734348 1.351647,1.013476 2.438888,0.963051 0.711083,-0.03298 1.029052,-0.122452 1.468384,-0.413188 z"
       id="path1798" />
    <path
       style="fill:#ff9614;fill-opacity:1;stroke:#f9f9f9;stroke-width:0.1373;stroke-opacity:1"
       d="m 114.04573,66.486844 c -0.025,-3.152746 -0.0326,-5.755132 -0.017,-5.783079 0.0987,-0.177102 0.75886,0.183826 0.86975,0.475486 0.0765,0.201106 0.13244,2.51193 0.13244,5.466876 0,4.784373 -0.0164,5.133358 -0.25108,5.345753 -0.1381,0.124976 -0.34955,0.22723 -0.4699,0.22723 -0.19599,0 -0.22354,-0.597681 -0.26416,-5.732266 z"
       id="path1800" />
    <path
       style="fill:#ff9614;fill-opacity:1;stroke:#ff9614;stroke-width:0.1373;stroke-opacity:1"
       d="m 31.578947,92.344834 c -0.67762,-0.218192 -1.788314,-1.204816 -2.149875,-1.90972 -0.148383,-0.289292 -0.389552,-0.994256 -0.535929,-1.566586 -0.25824,-1.009707 -0.266141,-1.739402 -0.266141,-24.579112 V 40.750904 l 0.413351,-0.386127 c 0.573592,-0.535815 2.210972,-1.187817 3.583337,-1.426879 1.30966,-0.228138 19.271649,-0.489558 36.849994,-0.536316 l 9.885584,-0.0263 0.443628,1.111406 c 1.794808,4.49647 0.847333,8.343187 -2.716417,11.028553 -1.158452,0.872919 -3.580185,2.125325 -7.044786,3.643228 -4.179733,1.831216 -6.049307,3.620019 -6.899492,6.601415 -0.187168,0.656355 -0.245487,1.59614 -0.293579,4.730892 -0.08385,5.465545 0.1837,7.604081 1.275093,10.191874 0.817156,1.937554 1.825074,3.267415 4.40996,5.818573 1.782019,1.758766 2.454526,2.516699 2.680144,3.020595 0.462361,1.032641 0.388127,2.0391 -0.352239,4.775579 -0.344928,1.274897 -0.666171,2.526042 -0.713875,2.780321 l -0.08673,0.462324 -18.966413,-0.0092 C 36.018937,92.52356 32.015483,92.485399 31.578947,92.344834 Z m 35.766591,-0.834537 c 0,-0.113272 -0.09268,-0.205949 -0.20595,-0.205949 -0.113272,0 -0.20595,0.09268 -0.20595,0.205949 0,0.113273 0.09268,0.20595 0.20595,0.20595 0.113272,0 0.20595,-0.09268 0.20595,-0.20595 z"
       id="path1838" />
    <path
       style="fill:#c55c00;fill-opacity:1;stroke:#f9f9f9;stroke-width:0.1373;stroke-opacity:1"
       d="m 71.238581,92.299771 c 1.219501,-4.363314 1.378461,-5.083932 1.385615,-6.281464 0.01143,-1.913192 -0.252314,-2.350173 -3.149018,-5.217392 -3.415264,-3.380501 -4.483228,-5.131018 -5.190886,-8.508461 -0.257368,-1.228343 -0.289301,-1.851791 -0.29557,-5.770715 -0.0076,-4.775507 0.04142,-5.207073 0.767863,-6.754917 0.902678,-1.923347 2.515158,-3.1444 6.418036,-4.860071 4.858226,-2.135632 6.376061,-3.02852 8.07995,-4.753146 0.779853,-0.789344 1.124765,-1.278517 1.602718,-2.273064 0.743084,-1.546249 0.952462,-2.498478 0.942819,-4.287864 -0.0081,-1.4956 -0.342911,-3.179772 -0.909388,-4.573877 l -0.331367,-0.815502 3.65625,-0.0847 c 10.640227,-0.246486 14.750347,-0.255911 15.783699,-0.03619 1.717748,0.365238 3.075318,1.140067 3.526638,2.012817 0.16415,0.317436 0.21408,2.027816 0.29209,10.006529 0.0729,7.455207 0.13202,9.623648 0.26241,9.623648 0.0926,0 0.31418,0.121515 0.49245,0.270032 0.32313,0.269191 0.30021,0.270084 -7.364652,0.286866 -4.228833,0.0093 -9.52236,0.05765 -11.763393,0.107543 -3.855332,0.08583 -4.095465,0.106294 -4.462242,0.380328 l -0.387637,0.289622 v 5.277288 c 0,4.880395 0.01887,5.306076 0.250953,5.660062 0.535949,0.81747 0.133691,0.795179 12.634676,0.700148 l 11.416435,-0.08679 -0.46136,0.308203 -0.46136,0.308203 0.045,7.837346 c 0.0446,7.758011 0.042,7.846381 -0.2554,8.729795 -0.36743,1.09156 -0.93308,1.80124 -1.75142,2.197391 -0.61769,0.299021 -0.65519,0.300177 -13.558516,0.418284 -18.493383,0.169274 -17.295582,0.176924 -17.215403,-0.109954 z M 95.57533,90.949869 c -0.04584,-0.119448 -0.08334,-0.304803 -0.08334,-0.4119 0,-0.129149 -0.154115,-0.19472 -0.457666,-0.19472 -0.669768,0 -0.705554,0.142192 -0.125544,0.498834 0.609922,0.375031 0.779632,0.402475 0.666549,0.107786 z m 2.799956,-51.544835 c 0,-0.07552 -0.06543,-0.137299 -0.145403,-0.137299 -0.07997,0 -0.107218,0.06178 -0.06055,0.137299 0.04667,0.07552 0.112103,0.1373 0.145404,0.1373 0.0333,0 0.06055,-0.06178 0.06055,-0.1373 z"
       id="path1842" />
    <path
       style="fill:#c55c00;fill-opacity:1;stroke:#f9f9f9;stroke-width:0.1373;stroke-opacity:1"
       d="m 25.417963,90.690869 c -1.244803,-0.44372 -2.17587,-1.647391 -2.68772,-3.474649 -0.518645,-1.851515 -0.589948,-5.690524 -0.516621,-27.815354 0.06589,-19.880045 0.07286,-20.309169 0.335864,-20.663616 0.648197,-0.873573 2.1839,-1.537731 4.155319,-1.797085 0.566362,-0.07451 6.806637,-0.199717 13.867277,-0.278241 7.060641,-0.07852 20.128147,-0.238956 29.038902,-0.356516 24.758047,-0.326633 23.690246,-0.329783 24.919908,0.0735 l 1.029749,0.33772 -3.020595,0.09787 c -3.47824,0.112699 -19.882358,0.328614 -40.572083,0.534018 -15.42847,0.153172 -19.356348,0.269142 -20.663615,0.61009 -1.063853,0.277463 -2.597359,1.03844 -3.295195,1.635185 l -0.549199,0.469641 -0.0874,8.835559 c -0.132131,13.357134 -0.124418,30.99254 0.01554,35.540364 0.114014,3.704669 0.267401,5.633814 0.495134,6.227278 0.07569,0.197248 -0.04112,0.225049 -0.92346,0.219785 -0.555562,-0.0033 -1.249376,-0.09131 -1.541807,-0.195553 z"
       id="path8951" />
    <ellipse
       style="fill:#c55c00;fill-opacity:1;stroke:#f9f9f9;stroke-width:1.14201;stroke-opacity:0.0308648"
       id="path9005"
       cx="31.516897"
       cy="41.018593"
       rx="11.89094"
       ry="11.83875" />
    <ellipse
       style="fill:#7beaff;fill-opacity:1;stroke:#c17676;stroke-width:1.03403;stroke-opacity:8.22179e-05"
       id="path9007"
       ry="13.514148"
       rx="14.302984"
       cy="59.405891"
       cx="26.329195" />
    <ellipse
       style="fill:#c55c00;fill-opacity:1;stroke:#f9f9f9;stroke-width:1.13764;stroke-opacity:0"
       id="path9009"
       cx="22.113108"
       cy="26.450415"
       rx="9.1512642"
       ry="9.0264893" />
    <text
       xml:space="preserve"
       style="font-size:17.8938px;line-height:1.25;font-family:sans-serif;-inkscape-font-specification:'sans-serif, Normal';fill:#ffffff;fill-opacity:1;stroke:#fef4f4;stroke-width:0.447348;stroke-opacity:0"
       x="19.944933"
       y="65.475716"
       id="text9079"
       transform="scale(0.99560549,1.0044139)"><tspan
         sodipodi:role="line"
         id="tspan9077"
         x="19.944933"
         y="65.475716"
         style="fill:#ffffff;fill-opacity:1;stroke:#fef4f4;stroke-width:0.447348;stroke-opacity:0">K</tspan></text>
    <text
       xml:space="preserve"
       style="font-style:normal;font-variant:normal;font-weight:normal;font-stretch:normal;font-size:16.0218px;line-height:1.25;font-family:sans-serif;-inkscape-font-specification:'sans-serif, Normal';font-variant-ligatures:normal;font-variant-caps:normal;font-variant-numeric:normal;font-variant-east-asian:normal;fill:#ffffff;fill-opacity:1;stroke:#fef4f4;stroke-width:0.400547;stroke-opacity:0"
       x="44.088814"
       y="20.403828"
       id="text9133"
       transform="matrix(0.83455263,0.54082703,-0.54259083,0.84662392,0,0)"><tspan
         sodipodi:role="line"
         id="tspan9744"
         x="44.088814"
         y="20.403828">F</tspan></text>
    <text
       xml:space="preserve"
       style="font-style:normal;font-variant:normal;font-weight:normal;font-stretch:normal;font-size:12.6975px;line-height:1.25;font-family:sans-serif;-inkscape-font-specification:'sans-serif, Normal';font-variant-ligatures:normal;font-variant-caps:normal;font-variant-numeric:normal;font-variant-east-asian:normal;fill:#ffffff;fill-opacity:1;stroke:#fef4f4;stroke-width:0.317438;stroke-opacity:0"
       x="-5.2603412"
       y="36.402843"
       id="text9137"
       transform="matrix(0.72789512,-0.68088814,0.734335,0.68691216,0,0)"><tspan
         sodipodi:role="line"
         id="tspan9742"
         x="-5.2603412"
         y="36.402843">J</tspan></text>
  </g>
</svg>
